<svg id="Layer_1" data-name="Layer 1" xmlns="http://www.w3.org/2000/svg" viewBox="0 0 122.88 106.08">
    <defs>
        <style>.cls-1{fill-rule:evenodd;}</style>
    </defs>
    <title>chat-question</title>
    <path class="cls-1" d="M114.07,54.18a29.78,29.78,0,0,0-11.86-7.3V9a9,9,0,0,0-9-9H9A9,9,0,0,0,0,9V75.47a9,9,0,0,0,2.65,6.34l.28.26A9,9,0,0,0,9,84.46H20v17.91a3.71,3.71,0,0,0,3.7,3.71,3.76,3.76,0,0,0,2.78-1.25L47.68,84.46H64.11a30.5,30.5,0,0,0,7.43,12.25,30.07,30.07,0,0,0,42.53-42.53ZM94.8,45.43a30.08,30.08,0,0,0-32,31.63H46.21a3.68,3.68,0,0,0-2.56,1L27.37,93.7v-13A3.71,3.71,0,0,0,23.66,77H9a1.64,1.64,0,0,1-1-.36l-.1-.1a1.58,1.58,0,0,1-.47-1.11V9A1.64,1.64,0,0,1,9,7.41H93.23a1.59,1.59,0,0,1,1.11.48A1.56,1.56,0,0,1,94.8,9V45.43ZM25.43,55.24a3.71,3.71,0,1,1,0-7.41H59.82a3.71,3.71,0,0,1,0,7.41Zm0-21.93a3.71,3.71,0,1,1,0-7.41H76.79a3.71,3.71,0,1,1,0,7.41Zm70.85,49.6H88c0-1.42,0-4.52.47-5.87a7.54,7.54,0,0,1,1.43-2.4,41.31,41.31,0,0,1,4.25-3.83c1.18-1,1.76-1.84,1.76-2.63a2.46,2.46,0,0,0-.71-1.87,3.08,3.08,0,0,0-2.14-.65,3.43,3.43,0,0,0-2.55,1,5.92,5.92,0,0,0-1.3,3.56l-8.43-1a11.47,11.47,0,0,1,3.37-7.49q3-2.84,9-2.83a13.44,13.44,0,0,1,7.65,2,8.25,8.25,0,0,1,4,7.14,6.9,6.9,0,0,1-1,3.57,17.42,17.42,0,0,1-4.17,4.19,11.32,11.32,0,0,0-2.78,2.8,14.19,14.19,0,0,0-.57,4.37Zm.3,3V92H87.73v-6.1Z">
    </path>
</svg>