<svg version="1.1" id="Layer_1" xmlns="http://www.w3.org/2000/svg" xmlns:xlink="http://www.w3.org/1999/xlink" x="0px" y="0px" width="122.88px" height="102.85px" viewBox="0 0 122.88 102.85" enable-background="new 0 0 122.88 102.85" xml:space="preserve"><g><path d="M122.88,35.619v28.67c0,2.608-0.466,5.046-1.4,7.315c-0.933,2.264-2.322,4.319-4.174,6.169 c-0.802,0.797-1.645,1.511-2.526,2.14c-0.906,0.646-1.832,1.194-2.777,1.644c-0.05,0.024-0.101,0.047-0.152,0.067 c-1.21,0.563-2.47,0.986-3.779,1.271c-1.357,0.295-2.763,0.443-4.215,0.443h-8.544h-0.017h-0.017h-0.018h-0.017h-0.456 c0.181,0.577,0.37,1.149,0.566,1.716c0.555,1.603,1.18,3.182,1.875,4.731l0.01,0.021l0.001-0.001 c0.626,1.431,1.464,2.826,2.509,4.186c1.077,1.402,2.394,2.792,3.945,4.167c1.109,0.982,1.213,2.678,0.231,3.787 c-0.691,0.781-1.736,1.063-2.682,0.819v0.001c-3.333-0.864-6.479-1.944-9.443-3.236c-2.965-1.292-5.762-2.807-8.393-4.54 l-0.005,0.008c-2.613-1.709-5.059-3.633-7.331-5.768c-1.925-1.81-3.724-3.773-5.392-5.892h-0.908h-0.017h-0.017h-0.018h-0.017 h-8.543c-1.779,0-3.482-0.222-5.108-0.661c-1.628-0.44-3.18-1.109-4.652-2.003c-1.266-0.767-1.671-2.415-0.905-3.682 c0.767-1.267,2.415-1.671,3.682-0.904c1.009,0.612,2.097,1.077,3.264,1.393c1.16,0.313,2.4,0.472,3.72,0.472h8.543h0.017h0.018 h0.017h0.017h2.222v0.011c0.814,0,1.619,0.371,2.146,1.072c1.695,2.264,3.567,4.358,5.614,6.281 c2.021,1.899,4.222,3.627,6.595,5.179l-0.006,0.008l0.006,0.003c2.254,1.485,4.672,2.803,7.254,3.95 c-0.487-0.827-0.916-1.662-1.285-2.505h0.001c-0.736-1.644-1.415-3.363-2.034-5.151c-0.589-1.7-1.116-3.447-1.582-5.235 c-0.104-0.287-0.161-0.597-0.161-0.92c0-1.487,1.206-2.692,2.692-2.692h4.011h0.017h0.018h0.017h0.017h8.544 c1.082,0,2.108-0.105,3.078-0.316c0.923-0.2,1.801-0.493,2.632-0.876c0.04-0.021,0.081-0.042,0.123-0.063 c0.702-0.334,1.361-0.721,1.978-1.16c0.642-0.458,1.261-0.981,1.854-1.571c1.34-1.34,2.338-2.807,2.995-4.401 c0.654-1.588,0.98-3.347,0.98-5.275v-28.67c0-1.917-0.326-3.669-0.98-5.255c-0.657-1.592-1.655-3.059-2.995-4.399l0,0l-0.011-0.01 c-1.34-1.341-2.807-2.338-4.398-2.995c-1.586-0.654-3.338-0.98-5.255-0.98h-7.702h-5.612c-1.487,0-2.693-1.206-2.693-2.693 c0-1.487,1.206-2.693,2.693-2.693h5.612h7.702c2.597,0,5.028,0.466,7.295,1.401c2.256,0.931,4.309,2.317,6.155,4.163l0.006,0.005 l0.005,0.005l0.002,0.002c1.845,1.847,3.23,3.898,4.161,6.153C122.414,30.589,122.88,33.021,122.88,35.619L122.88,35.619z M48.405,5.386H32.34H19.025c-1.917,0-3.669,0.326-5.255,0.98c-1.592,0.657-3.059,1.655-4.399,2.995l-0.01,0.011l0,0 c-1.341,1.34-2.338,2.807-2.995,4.399c-0.654,1.586-0.98,3.338-0.98,5.255v28.67c0,1.929,0.326,3.687,0.98,5.276 c0.657,1.595,1.655,3.062,2.995,4.401c1.348,1.339,2.822,2.341,4.421,3.002c1.584,0.654,3.332,0.984,5.243,0.984h12.621 c1.487,0,2.693,1.205,2.693,2.692c0,0.323-0.057,0.633-0.161,0.92c-0.465,1.787-0.993,3.535-1.582,5.235 c-0.62,1.788-1.297,3.508-2.034,5.151h0c-0.369,0.843-0.797,1.678-1.285,2.505c2.583-1.147,5-2.465,7.255-3.95l0.005-0.003 l-0.005-0.008c2.373-1.552,4.573-3.279,6.595-5.18c2.047-1.922,3.919-4.018,5.614-6.28c0.526-0.702,1.331-1.072,2.146-1.073v-0.01 h10.833c1.911,0,3.659-0.33,5.243-0.984c1.599-0.661,3.073-1.663,4.422-3.002c1.34-1.34,2.338-2.807,2.995-4.401 c0.653-1.589,0.979-3.347,0.979-5.276v-28.67c0-1.917-0.326-3.669-0.979-5.255c-0.657-1.592-1.655-3.059-2.995-4.399l-0.011-0.011 l0,0c-1.341-1.34-2.807-2.338-4.399-2.995c-1.586-0.654-3.338-0.98-5.255-0.98H48.405L48.405,5.386z M32.34,0h16.065h13.314 c2.597,0,5.029,0.466,7.296,1.401c2.255,0.93,4.307,2.316,6.153,4.161l0.002,0.001l0.005,0.006l0.006,0.005 c1.845,1.848,3.231,3.899,4.162,6.156c0.936,2.267,1.401,4.699,1.401,7.295v28.67c0,2.608-0.466,5.046-1.401,7.316 c-0.932,2.264-2.322,4.318-4.173,6.169c-1.849,1.836-3.905,3.225-6.167,4.159c-2.262,0.934-4.69,1.404-7.284,1.404H52.2 c-1.669,2.118-3.467,4.083-5.392,5.892c-2.273,2.136-4.718,4.06-7.332,5.769l-0.004-0.008c-2.632,1.733-5.428,3.248-8.393,4.54 c-2.964,1.292-6.11,2.372-9.443,3.236v-0.001c-0.945,0.244-1.991-0.038-2.683-0.819c-0.981-1.11-0.878-2.806,0.232-3.787 c1.552-1.375,2.868-2.765,3.946-4.167c1.045-1.359,1.882-2.755,2.509-4.186h0.001l0.009-0.021c0.695-1.549,1.32-3.128,1.875-4.73 c0.196-0.567,0.385-1.139,0.566-1.717h-9.067c-2.594,0-5.022-0.471-7.283-1.404c-2.263-0.935-4.319-2.324-6.167-4.159 c-1.851-1.851-3.241-3.905-4.173-6.169C0.466,52.742,0,50.304,0,47.696v-28.67c0-2.597,0.466-5.029,1.401-7.295 c0.931-2.255,2.316-4.307,4.161-6.154l0.002-0.002l0.005-0.005l0.005-0.006c1.847-1.845,3.899-3.231,6.155-4.162 C13.997,0.466,16.429,0,19.025,0H32.34L32.34,0z"></path></g></svg>