<?xml version="1.0" encoding="UTF-8"?>
<svg xmlns="http://www.w3.org/2000/svg" xmlns:xlink="http://www.w3.org/1999/xlink" width="20pt" height="20pt" viewBox="0 0 20 20" version="1.1">
<g id="surface1">
<path style=" stroke:none;fill-rule:evenodd;fill:rgb(0%,0%,0%);fill-opacity:1;" d="M 17.351562 7.871094 C 17.554688 7.253906 17.628906 6.601562 17.558594 5.953125 C 17.492188 5.304688 17.285156 4.679688 16.957031 4.121094 C 16.472656 3.269531 15.726562 2.597656 14.832031 2.199219 C 13.9375 1.804688 12.941406 1.699219 11.984375 1.90625 C 11.550781 1.417969 11.023438 1.027344 10.429688 0.765625 C 9.835938 0.5 9.191406 0.363281 8.539062 0.367188 C 7.5625 0.367188 6.609375 0.675781 5.816406 1.25 C 5.023438 1.824219 4.433594 2.636719 4.132812 3.566406 C 3.496094 3.695312 2.894531 3.960938 2.367188 4.34375 C 1.839844 4.726562 1.402344 5.214844 1.082031 5.78125 C 0.589844 6.628906 0.378906 7.609375 0.480469 8.582031 C 0.585938 9.554688 0.992188 10.472656 1.648438 11.195312 C 1.445312 11.8125 1.371094 12.46875 1.441406 13.113281 C 1.507812 13.761719 1.710938 14.386719 2.042969 14.949219 C 2.527344 15.796875 3.273438 16.46875 4.167969 16.867188 C 5.0625 17.265625 6.058594 17.367188 7.015625 17.164062 C 7.445312 17.648438 7.976562 18.039062 8.570312 18.304688 C 9.164062 18.566406 9.808594 18.703125 10.460938 18.699219 C 11.4375 18.703125 12.394531 18.394531 13.183594 17.816406 C 13.976562 17.242188 14.566406 16.429688 14.867188 15.5 C 15.503906 15.367188 16.105469 15.105469 16.632812 14.722656 C 17.160156 14.339844 17.597656 13.847656 17.921875 13.285156 C 18.410156 12.4375 18.621094 11.457031 18.519531 10.484375 C 18.414062 9.511719 18.007812 8.597656 17.351562 7.871094 Z M 10.460938 17.5 C 9.65625 17.5 8.878906 17.21875 8.261719 16.707031 C 8.289062 16.691406 8.339844 16.664062 8.371094 16.644531 L 12.019531 14.535156 C 12.113281 14.484375 12.1875 14.410156 12.242188 14.316406 C 12.292969 14.226562 12.320312 14.121094 12.320312 14.015625 L 12.320312 8.871094 L 13.863281 9.761719 C 13.871094 9.765625 13.878906 9.773438 13.882812 9.78125 C 13.886719 9.785156 13.890625 9.796875 13.894531 9.804688 L 13.894531 14.066406 C 13.890625 14.976562 13.53125 15.847656 12.886719 16.492188 C 12.242188 17.136719 11.371094 17.5 10.460938 17.5 Z M 3.082031 14.347656 C 2.679688 13.652344 2.53125 12.839844 2.671875 12.046875 C 2.699219 12.0625 2.746094 12.089844 2.777344 12.109375 L 6.429688 14.21875 C 6.519531 14.273438 6.625 14.300781 6.730469 14.300781 C 6.835938 14.300781 6.9375 14.273438 7.027344 14.21875 L 11.484375 11.648438 L 11.484375 13.429688 C 11.484375 13.4375 11.484375 13.445312 11.480469 13.453125 C 11.476562 13.460938 11.46875 13.46875 11.460938 13.476562 L 7.773438 15.605469 C 6.984375 16.058594 6.046875 16.183594 5.167969 15.949219 C 4.289062 15.710938 3.535156 15.136719 3.082031 14.347656 Z M 2.121094 6.378906 C 2.519531 5.683594 3.152344 5.152344 3.910156 4.875 C 3.910156 4.90625 3.90625 4.960938 3.90625 5 L 3.90625 9.214844 C 3.90625 9.320312 3.933594 9.425781 3.984375 9.515625 C 4.039062 9.609375 4.113281 9.683594 4.207031 9.734375 L 8.664062 12.308594 L 7.121094 13.199219 C 7.113281 13.203125 7.101562 13.207031 7.09375 13.207031 C 7.085938 13.207031 7.074219 13.207031 7.066406 13.203125 L 3.378906 11.070312 C 2.589844 10.617188 2.015625 9.867188 1.78125 8.984375 C 1.542969 8.105469 1.667969 7.167969 2.121094 6.378906 Z M 14.792969 9.332031 L 10.339844 6.757812 L 11.882812 5.867188 C 11.890625 5.863281 11.898438 5.859375 11.90625 5.859375 C 11.917969 5.855469 11.925781 5.859375 11.933594 5.863281 L 15.625 7.992188 C 16.1875 8.320312 16.648438 8.800781 16.953125 9.378906 C 17.253906 9.957031 17.382812 10.609375 17.328125 11.261719 C 17.273438 11.910156 17.03125 12.53125 16.636719 13.050781 C 16.242188 13.570312 15.707031 13.964844 15.09375 14.191406 C 15.09375 14.160156 15.09375 14.105469 15.09375 14.066406 L 15.09375 9.847656 C 15.09375 9.742188 15.066406 9.640625 15.015625 9.550781 C 14.960938 9.457031 14.886719 9.382812 14.792969 9.332031 Z M 16.332031 7.019531 C 16.304688 7.003906 16.253906 6.972656 16.222656 6.953125 L 12.570312 4.847656 C 12.480469 4.792969 12.378906 4.765625 12.273438 4.765625 C 12.167969 4.765625 12.0625 4.792969 11.972656 4.847656 L 7.515625 7.417969 L 7.515625 5.636719 C 7.515625 5.628906 7.519531 5.621094 7.523438 5.613281 C 7.527344 5.601562 7.53125 5.597656 7.539062 5.589844 L 11.226562 3.460938 C 11.792969 3.136719 12.441406 2.976562 13.089844 3.007812 C 13.742188 3.035156 14.375 3.246094 14.910156 3.621094 C 15.445312 3.992188 15.863281 4.511719 16.113281 5.113281 C 16.367188 5.714844 16.441406 6.375 16.332031 7.019531 Z M 6.679688 10.195312 L 5.136719 9.304688 C 5.125 9.300781 5.121094 9.292969 5.113281 9.285156 C 5.109375 9.277344 5.105469 9.269531 5.105469 9.261719 L 5.105469 5 C 5.105469 4.347656 5.292969 3.707031 5.640625 3.15625 C 5.992188 2.609375 6.492188 2.167969 7.082031 1.890625 C 7.675781 1.613281 8.332031 1.511719 8.980469 1.59375 C 9.625 1.679688 10.238281 1.945312 10.738281 2.363281 C 10.710938 2.378906 10.664062 2.40625 10.628906 2.425781 L 6.980469 4.53125 C 6.890625 4.585938 6.8125 4.660156 6.761719 4.75 C 6.707031 4.84375 6.679688 4.945312 6.679688 5.050781 Z M 7.515625 8.386719 L 9.5 7.242188 L 11.484375 8.386719 L 11.484375 10.679688 L 9.5 11.824219 L 7.515625 10.679688 Z M 7.515625 8.386719 "/>
</g>
</svg>
